<svg aria-hidden="true" style="width:0;height:0;position:absolute;overflow:hidden" xmlns="http://www.w3.org/2000/svg"><defs><symbol id="arrow-right-long" viewBox="0 0 82 32"><path d="M81.414 17.414a2 2 0 0 0 0-2.828L68.686 1.858a2 2 0 1 0-2.828 2.828L77.172 16 65.858 27.314a2 2 0 1 0 2.828 2.828l12.728-12.728zM0 18h80v-4H0v4z"/></symbol><symbol id="logo" viewBox="0 0 16 32"><path d="M15.503 14.195c1.642-4.393-1.758-6.797-4.012-8.377-.431-.323-.862-.624-1.211-.901-.624-.519-1.084-1.204-1.324-1.972S8.704 1.355 8.923.58a.46.46 0 0 0-.358-.571.482.482 0 0 0-.25.018 7.628 7.628 0 0 0-2.09 1.228c-.601.457-1.088 1.043-1.423 1.714s-.511 1.408-.512 2.156c-.425.33-.801.718-1.116 1.151-.58.78-.87 1.732-.823 2.698-.69.625-1.204 1.416-1.492 2.295s-.339 1.817-.15 2.722c-.275.164-.487.412-.605.706s-.135.618-.047.923c.087.304.273.572.53.762s.569.292.89.29h.03v2.498c0 .254.102.497.284.676s.429.28.686.28h.754l1.228 10.493c.026.234.138.45.315.606s.407.244.646.243h5.111a.973.973 0 0 0 .965-.85l1.228-10.493h.754c.257 0 .504-.101.686-.28s.284-.422.284-.676v-2.498h.03c.39 0 .764-.153 1.039-.424s.43-.64.43-1.024a1.41 1.41 0 0 0-.431-1.032l-.013.004zM4.44 6.226c.621 2.298 3.017 3.203 5.202 4.01a.477.477 0 0 0 .571-.059.458.458 0 0 0-.052-.71.475.475 0 0 0-.188-.079C7.62 8.509 5.4 7.689 5.232 5.34c-.039-.646.084-1.291.358-1.879s.692-1.099 1.215-1.49c.328-.269.68-.508 1.052-.714-.024.294-.024.59 0 .884.05.673.237 1.33.549 1.93s.744 1.133 1.27 1.566c.358.302.802.612 1.293.943 1.133.803 2.422 1.699 3.241 2.914a4.482 4.482 0 0 1 .47 4.312h-1.905c-3.926 0-8.438-1.071-9.331-4.07-.177-.617-.176-1.271.004-1.887s.531-1.171 1.013-1.601l-.022-.021zm3.534 14.481 1.439 1.419-1.439 1.419-1.439-1.427 1.439-1.41zm3.301 3.726-1.189 1.172-1.439-1.419 1.439-1.415 1.25 1.228-.06.433zm-3.301 3.254-1.439-1.419 1.439-1.419 1.439 1.419-1.439 1.419zm-.66-3.492-1.439 1.419-1.198-1.181-.052-.425 1.25-1.228 1.439 1.415zm-2.103 2.073-.289.285-.073-.646.362.361zm-.151 1.453.815-.803 1.582 1.572a.72.72 0 0 0 .03.093H5.16l-.099-.862zm5.017-.803.815.803-.099.85H8.401l1.676-1.653zm.948-.365-.289-.285.366-.361-.078.646zm.431-3.713-.72-.722.914-.901-.194 1.623zm-1.384-1.368L8.706 20.13h2.732l-1.366 1.342zm-4.201 0L4.505 20.13h2.732l-1.366 1.342zm4.654 9.074H5.418c-.008-.001-.015-.004-.02-.01s-.009-.012-.01-.02l-.121-1.02h5.413l-.116 1.02c-.001.008-.005.016-.011.021s-.014.009-.023.008h-.004zm3.952-14.8h-1.5a.485.485 0 0 0-.361.118.45.45 0 0 0-.114.529.446.446 0 0 0 .114.155c.048.043.106.076.168.097s.128.028.193.021h.534v2.498c-.001.008-.005.016-.011.021s-.014.009-.023.008H2.457c-.008 0-.017-.003-.023-.008s-.01-.013-.011-.021v-2.498h8.537c.116-.011.224-.064.303-.15a.458.458 0 0 0 0-.622.474.474 0 0 0-.303-.15H1.479a.547.547 0 0 1-.409-.136.519.519 0 0 1 0-.777.56.56 0 0 1 .409-.136h.978c.116-.011.224-.064.303-.15a.458.458 0 0 0 0-.622.471.471 0 0 0-.303-.15h-.862a4.499 4.499 0 0 1 .94-3.695c.302.926 1.077 2.192 3.017 3.199 1.823.939 4.236 1.419 7.171 1.419h1.724a.547.547 0 0 1 .538.312.518.518 0 0 1-.129.601.532.532 0 0 1-.409.136h.03z"/></symbol><symbol id="arrow-right-small" viewBox="0 0 32 32"><path d="M10.586 3.272a2 2 0 0 0 0 2.828l9.9 9.9-9.9 9.9a1.998 1.998 0 0 0 .025 2.804 2.001 2.001 0 0 0 2.804.025l11.314-11.314a2 2 0 0 0 0-2.828L13.415 3.273a2 2 0 0 0-2.828 0z"/></symbol></defs></svg>